<svg xmlns="http://www.w3.org/2000/svg" version="1.1" xmlns:xlink="http://www.w3.org/1999/xlink" xmlns:svgjs="http://svgjs.dev/svgjs" width="1440" height="560" preserveAspectRatio="none" viewBox="0 0 1440 560"><g mask="url(&quot;#SvgjsMask1014&quot;)" fill="none"><path d="M200.86 359.84L238.66 359.84L238.66 397.64L200.86 397.64z" stroke="rgba(253, 168, 95, 1)"></path><path d="M1351.61 502.98L1394.57 502.98L1394.57 545.94L1351.61 545.94z" stroke="rgba(255, 81, 126, 1)"></path><path d="M751.38 461.76a55.83 55.83 0 1 0-105.5-36.57z" fill="rgba(0, 200, 218, 1)"></path><path d="M1358.85 453.59L1372.38 453.59L1372.38 468.7L1358.85 468.7z" stroke="rgba(0, 200, 218, 1)"></path><path d="M1167 59.51L1222.98 59.51L1222.98 115.49L1167 115.49z" fill="rgba(255, 81, 126, 1)"></path><path d="M512.77 546.78L555.62 546.78L555.62 589.63L512.77 589.63z" fill="rgba(255, 81, 126, 1)"></path><path d="M111.52 482.92 a40.18 40.18 0 1 0 80.36 0 a40.18 40.18 0 1 0 -80.36 0z" stroke="rgba(255, 81, 126, 1)"></path><path d="M87.23 75.09L138.59 75.09L138.59 83.38L87.23 83.38z" fill="rgba(255, 81, 126, 1)"></path><path d="M454.27 265.33 a26.41 26.41 0 1 0 52.82 0 a26.41 26.41 0 1 0 -52.82 0z" fill="rgba(253, 168, 95, 1)"></path><path d="M703.1 211.96a18.88 18.88 0 1 0-17.87 33.27z" stroke="rgba(0, 200, 218, 1)"></path><path d="M1285.78 154.82L1322.69 154.82L1322.69 175.47L1285.78 175.47z" stroke="rgba(253, 168, 95, 1)"></path><path d="M543.97 233.17L569.51 233.17L569.51 258.71L543.97 258.71z" stroke="rgba(0, 200, 218, 1)"></path><path d="M32.35 81.05L53.94 81.05L53.94 102.64L32.35 102.64z" stroke="rgba(255, 81, 126, 1)"></path><path d="M131.89 557.8a47.46 47.46 0 1 0 77.38-54.97z" fill="rgba(255, 81, 126, 1)"></path><path d="M1325.58 361.6L1362.46 361.6L1362.46 366.15L1325.58 366.15z" stroke="rgba(0, 200, 218, 1)"></path><path d="M71.36 256.2L102.07 256.2L102.07 293.71L71.36 293.71z" stroke="rgba(253, 168, 95, 1)"></path><path d="M857.01 121.65a6.39 6.39 0 1 0 12.78 0.36z" fill="rgba(0, 200, 218, 1)"></path><path d="M1456.57 99.59a42.5 42.5 0 1 0-35.58-77.19z" stroke="rgba(0, 200, 218, 1)"></path><path d="M1121.47 392.64a51.29 51.29 0 1 0-79.83-64.42z" fill="rgba(0, 200, 218, 1)"></path><path d="M664.08 269.61 a15.84 15.84 0 1 0 31.68 0 a15.84 15.84 0 1 0 -31.68 0z" fill="rgba(255, 81, 126, 1)"></path><path d="M826.76 355.75 a36.15 36.15 0 1 0 72.3 0 a36.15 36.15 0 1 0 -72.3 0z" fill="rgba(255, 81, 126, 1)"></path><path d="M71.86 346.74L115.81 346.74L115.81 390.69L71.86 390.69z" stroke="rgba(253, 168, 95, 1)"></path><path d="M628.46 247.07 a42.48 42.48 0 1 0 84.96 0 a42.48 42.48 0 1 0 -84.96 0z" fill="rgba(0, 200, 218, 1)"></path><path d="M894.91 276.55L913.84 276.55L913.84 295.48L894.91 295.48z" fill="rgba(0, 200, 218, 1)"></path><path d="M822.09 66.74a24.42 24.42 0 1 0-33.42-35.6z" fill="rgba(255, 81, 126, 1)"></path><path d="M1337.11 291.52L1383.71 291.52L1383.71 338.12L1337.11 338.12z" stroke="rgba(255, 81, 126, 1)"></path><path d="M617.36 230.22a33.94 33.94 0 1 0 66.96-11.18z" stroke="rgba(255, 81, 126, 1)"></path><path d="M1160.97 316.51L1162.86 316.51L1162.86 318.4L1160.97 318.4z" stroke="rgba(0, 200, 218, 1)"></path><path d="M253.04 56.68a20.82 20.82 0 1 0 39.89 11.94z" fill="rgba(255, 81, 126, 1)"></path><path d="M799.33 376.44L853.35 376.44L853.35 430.46L799.33 430.46z" fill="rgba(0, 200, 218, 1)"></path><path d="M956.14 294.76L981.59 294.76L981.59 317.91L956.14 317.91z" fill="rgba(0, 200, 218, 1)"></path><path d="M490.42 477.9L519.77 477.9L519.77 498.39L490.42 498.39z" stroke="rgba(255, 81, 126, 1)"></path><path d="M1285.72 73.63 a48.38 48.38 0 1 0 96.76 0 a48.38 48.38 0 1 0 -96.76 0z" stroke="rgba(255, 81, 126, 1)"></path></g><defs><mask id="SvgjsMask1014"><rect width="1440" height="560" fill="#ffffff"></rect></mask></defs></svg>